<svg id="Bluetooth_icon" data-name="Bluetooth icon" xmlns="http://www.w3.org/2000/svg" xmlns:xlink="http://www.w3.org/1999/xlink" width="14.438" height="27.818" viewBox="0 0 16.438 27.818">
  <defs>
    <clipPath id="clip-path">
      <rect id="Rectangle_62" data-name="Rectangle 62" width="16.438" height="27.818" fill="none"/>
    </clipPath>
  </defs>
  <g id="Group_121" data-name="Group 121" transform="translate(0 0)" clip-path="url(#clip-path)">
    <path id="Path_22" data-name="Path 22" d="M7.347,27.818a1.359,1.359,0,0,1-.913-.778,2.127,2.127,0,0,1-.114-.66q-.011-4.524,0-9.047v-.349c-.105.1-.177.156-.243.221q-1.912,1.912-3.823,3.822a1.28,1.28,0,0,1-1.761.2,1.254,1.254,0,0,1-.238-1.744,2.757,2.757,0,0,1,.274-.3q2.514-2.516,5.034-5.032c.07-.07.148-.132.246-.219-.085-.091-.149-.162-.217-.228Q3.022,11.131.459,8.566A1.274,1.274,0,0,1,.3,6.765a1.254,1.254,0,0,1,1.712-.189,3.215,3.215,0,0,1,.3.274q1.875,1.871,3.748,3.744c.067.067.139.131.253.237v-.341q0-4.564,0-9.128A1.275,1.275,0,0,1,7.62,0a1.43,1.43,0,0,1,.9.39q2.312,1.935,4.631,3.862,1.356,1.13,2.711,2.262a1.281,1.281,0,0,1-.009,2.144l-6.114,5.1c-.048.04-.1.082-.17.148.078.068.148.133.219.193l6.073,5.061a1.272,1.272,0,0,1,.351,1.774,1.829,1.829,0,0,1-.335.352q-3.691,3.082-7.39,6.154a4.2,4.2,0,0,1-.705.382ZM13.2,7.581c-1.448-1.2-2.872-2.391-4.323-3.6v7.2l4.323-3.6m0,12.646-4.319-3.6v7.2c1.453-1.212,2.868-2.391,4.319-3.6" transform="translate(0 0)" fill="#7756b7"/>
  </g>
</svg>
