<svg id="Location_Icon" data-name="Location Icon" xmlns="http://www.w3.org/2000/svg" xmlns:xlink="http://www.w3.org/1999/xlink" width="15.438" height="27.927" viewBox="0 0 24.577 27.927">
  <defs>
    <clipPath id="clip-path">
      <rect id="Rectangle_65" data-name="Rectangle 65" width="24.577" height="27.927" fill="none"/>
    </clipPath>
    <clipPath id="clip-path-2">
      <rect id="Rectangle_64" data-name="Rectangle 64" width="24.578" height="27.927" fill="none"/>
    </clipPath>
  </defs>
  <g id="Group_128" data-name="Group 128" clip-path="url(#clip-path)">
    <g id="Group_127" data-name="Group 127" transform="translate(0 0)">
      <g id="Group_126" data-name="Group 126" clip-path="url(#clip-path-2)">
        <g id="Group_125" data-name="Group 125" transform="translate(0 0)" opacity="0.6">
          <g id="Group_124" data-name="Group 124">
            <g id="Group_123" data-name="Group 123" clip-path="url(#clip-path)">
              <path id="Path_23" data-name="Path 23" d="M24.578,22.681c0,2.9-5.5,5.245-12.289,5.245S0,25.578,0,22.681c0-2.123,2.955-3.952,7.2-4.778l.184.285c-2.081.647-3.433,1.7-3.433,2.878,0,1.966,3.731,3.558,8.333,3.558s8.333-1.592,8.333-3.558c0-1.195-1.381-2.252-3.5-2.9.061-.092.121-.184.18-.278,4.287.819,7.273,2.655,7.273,4.791M12.289,0a7.749,7.749,0,0,1,7.749,7.749c0,7.235-7.749,14.933-7.749,14.933S4.54,15.244,4.54,7.749A7.749,7.749,0,0,1,12.289,0m0,13.9A6.154,6.154,0,1,0,6.134,7.749,6.155,6.155,0,0,0,12.289,13.9" transform="translate(0 0)" fill="#7756b7"/>
            </g>
          </g>
        </g>
      </g>
    </g>
  </g>
</svg>
