<svg id="Music_Icon" data-name="Music Icon" xmlns="http://www.w3.org/2000/svg" xmlns:xlink="http://www.w3.org/1999/xlink" width="15.438" height="24.766" viewBox="0 0 21.813 24.766">
  <defs>
    <clipPath id="clip-path">
      <rect id="Rectangle_69" data-name="Rectangle 69" width="21.813" height="24.766" fill="none"/>
    </clipPath>
  </defs>
  <g id="Group_137" data-name="Group 137" transform="translate(0 0)" clip-path="url(#clip-path)">
    <path id="Path_25" data-name="Path 25" d="M5.268,24.682a4.274,4.274,0,0,0,3.463-4.294V8.717c3.883-1.06,6.47-2.119,11.646-3.18v7.435c0-.023-.3-.038-.334-.057a4.667,4.667,0,0,0-3.092-.5,4.4,4.4,0,0,0-3.5,5.085,4.33,4.33,0,0,0,4.685,3.491,4.125,4.125,0,0,0,3.6-3.356c.04-.177-.072-.359-.072-.538V.938c0-.129.152-.258.143-.39C21.79.244,21.721.04,21.447,0a.74.74,0,0,0-.312.041c-1.212.345-2.4.694-3.612,1.042-3.256.934-6.5,1.869-9.757,2.8a1.212,1.212,0,0,0-.759.623c-.155.3-.541.615-.541.948,0,3.69-.322,7.378-.322,11.07v.089c0,.007.021.01.033.016.048.027-.033.051-.033.089v-.105a3.871,3.871,0,0,0-2.82-.42A4.3,4.3,0,0,0,.1,21.317a4.408,4.408,0,0,0,5.17,3.365" transform="translate(0 0)" fill="#7756b7" fill-rule="evenodd"/>
  </g>
</svg>
