<svg id="Phone_Icon" data-name="Phone Icon" xmlns="http://www.w3.org/2000/svg" xmlns:xlink="http://www.w3.org/1999/xlink" width="15.438" height="26.087" viewBox="0 0 26.114 26.087">
  <defs>
    <clipPath id="clip-path">
      <rect id="Rectangle_68" data-name="Rectangle 68" width="26.114" height="26.087" fill="#7756B7"/>
    </clipPath>
    <clipPath id="clip-path-2">
      <rect id="Rectangle_67" data-name="Rectangle 67" width="26.113" height="26.086" fill="#7756B7"/>
    </clipPath>
  </defs>
  <g id="Group_135" data-name="Group 135" clip-path="url(#clip-path)">
    <g id="Group_134" data-name="Group 134" transform="translate(0 0.001)">
      <g id="Group_133" data-name="Group 133" clip-path="url(#clip-path-2)">
        <g id="Group_132" data-name="Group 132" transform="translate(0 -0.001)" opacity="0.6">
          <g id="Group_131" data-name="Group 131" transform="translate(0 0)">
            <g id="Group_130" data-name="Group 130" clip-path="url(#clip-path)">
              <path id="Path_24" data-name="Path 24" d="M17.807,18.926l5.837,5.841c-.028.027-.058.06-.089.089-2.631,2.633-8.636.9-13.407-3.87L5.1,15.939C.328,11.165-1.4,5.164,1.229,2.53c.03-.028.06-.058.094-.088L7.16,8.28,7.035,8.4a3.145,3.145,0,0,0,.291,4.414l5.941,5.944a3.141,3.141,0,0,0,4.414.292ZM21.416,16.8a1.034,1.034,0,0,0-1.463,0l-1.2,1.195,5.857,5.861,1.2-1.2a1.036,1.036,0,0,0,0-1.463ZM9.313,6.161a1.034,1.034,0,0,0,0-1.467L4.922.3A1.042,1.042,0,0,0,3.455.3L2.26,1.5,8.118,7.356Z" transform="translate(0 0)" fill="#7756B7"/>
            </g>
          </g>
        </g>
      </g>
    </g>
  </g>
</svg>
